<svg width="169" height="109" viewBox="0 0 169 109" fill="none" xmlns="http://www.w3.org/2000/svg">
<path opacity="0.5" d="M47.185 106.397C73.2445 106.397 94.37 85.2716 94.37 59.2121C94.37 33.1525 73.2445 12.0271 47.185 12.0271C21.1254 12.0271 0 33.1525 0 59.2121C0 85.2716 21.1254 106.397 47.185 106.397Z" fill="#C9C9FF"/>
<path d="M125.207 1.50976L131.645 0.599091L129.771 16.0859L125.207 1.50976Z" fill="#B998FF"/>
<path d="M126.517 2.47255L132.954 1.56189L131.112 17.0483L126.517 2.47255Z" stroke="#340C87" stroke-width="0.790368" stroke-miterlimit="10"/>
<path d="M148.903 1.27405L154.538 4.49063L143.598 15.6264L148.903 1.27405Z" fill="#B998FF"/>
<path d="M149.362 2.85521L155.028 6.06473L144.05 17.1767L149.362 2.85521Z" stroke="#340C87" stroke-width="0.790368" stroke-miterlimit="10"/>
<path d="M167.048 19.6495L168.971 25.855L153.366 26.5067L167.048 19.6495Z" fill="#B998FF"/>
<path d="M166.301 21.1254L168.224 27.331L152.65 27.9817L166.301 21.1254Z" stroke="#340C87" stroke-width="0.790368" stroke-miterlimit="10"/>
<path d="M25.72 61.7617L5.86959 77.251C5.64402 77.9277 5.41845 78.5668 5.23047 79.2812L27.7878 61.6489C27.111 61.6489 26.3967 61.6865 25.72 61.7617Z" fill="#340C87"/>
<path d="M37.1495 63.3401L4.74219 88.7171C4.81738 89.1682 4.85497 89.6194 4.96776 90.0705L38.3902 63.9041C37.9766 63.7161 37.5631 63.5281 37.1495 63.3401Z" fill="#340C87"/>
<path d="M44.556 68.0768L7.63721 97.0253C7.82518 97.3637 8.05076 97.702 8.27633 98.0404L45.4207 68.9039C45.1199 68.6407 44.8568 68.3775 44.556 68.0768Z" fill="#340C87"/>
<path d="M49.5184 74.7321L13.0132 103.38C13.3139 103.643 13.6899 103.869 13.9907 104.132L50.0448 75.8224C49.8944 75.4464 49.7064 75.108 49.5184 74.7321Z" fill="#340C87"/>
<path d="M51.9245 83.3783L20.9834 107.74C21.4721 107.891 21.9609 108.003 22.4496 108.116L52.0373 84.8445C51.9997 84.3558 51.9621 83.867 51.9245 83.3783Z" fill="#340C87"/>
<path d="M47.6389 98.9058C48.3156 97.9659 48.9171 96.9885 49.4434 95.9734L33.9541 108.192C35.082 107.929 36.1722 107.59 37.2249 107.139L47.6389 98.9058Z" fill="#340C87"/>
<g filter="url(#filter0_d)">
<path d="M143.993 49.232C144.228 49.232 144.449 49.232 144.684 49.2627V32.4921C144.456 32.4921 144.235 32.4921 143.993 32.4921C141.185 32.4921 138.492 31.5003 136.506 29.7349C134.52 27.9694 133.404 25.575 133.404 23.0783C133.404 22.9739 133.404 22.8756 133.404 22.7712H57.0347V94.4958H133.418C133.418 94.3914 133.418 94.2932 133.418 94.1888C133.418 91.6921 134.534 89.2976 136.52 87.5322C138.505 85.7668 141.199 84.775 144.007 84.775C144.242 84.775 144.463 84.7749 144.698 84.8056V68.0351C144.47 68.0351 144.249 68.0658 144.007 68.0658C141.245 68.0031 138.619 66.9834 136.69 65.2243C134.761 63.4651 133.682 61.1056 133.682 58.6489C133.682 56.1922 134.761 53.8327 136.69 52.0735C138.619 50.3143 141.245 49.2947 144.007 49.232H143.993Z" fill="#2D2D2D"/>
<path d="M91.4682 57.6059C93.7768 54.2428 96.0854 50.8796 98.394 47.545C100.617 44.3244 102.812 41.1323 105.006 37.9116C105.206 37.6266 105.434 37.5126 105.776 37.5126C108.54 37.5411 111.276 37.5411 114.041 37.5126C114.469 37.5126 114.583 37.6266 114.583 38.0542C114.554 46.519 114.554 54.9838 114.583 63.4201C114.583 63.9046 114.355 63.9046 114.013 63.9046C110.136 63.9046 106.289 63.9046 102.413 63.9046C102.185 63.9046 101.9 63.7906 101.7 64.0186C101.7 64.2751 101.558 64.5031 101.415 64.7027C99.477 67.1822 97.653 69.7758 95.7719 72.2839C95.6009 72.5119 95.4869 72.8255 95.1449 72.854C92.7508 72.8825 90.3282 72.8825 87.9341 72.911C87.5921 72.911 87.4781 72.6545 87.3356 72.4549C85.6255 70.2604 83.9724 68.0658 82.3194 65.8712C81.7494 65.6717 81.6354 65.0447 81.1793 64.6457C81.0938 64.8452 81.1508 65.0447 81.1508 65.2442C81.1508 69.4053 81.1508 73.595 81.1508 77.7561C81.1508 78.1267 81.2363 78.5257 80.9228 78.8392C80.6948 78.8677 80.4668 78.8962 80.2388 78.8962C76.4197 78.8962 72.6005 78.8962 68.7814 78.9247C68.2114 78.9247 68.0973 78.7537 68.0973 78.2122C68.0973 64.8737 68.0973 51.5067 68.0688 38.1682C68.0688 37.6266 68.2114 37.4841 68.7244 37.4841C71.2325 37.5126 73.7406 37.5126 76.2202 37.4841C76.9327 37.4841 77.5027 37.5696 77.8162 38.2822C77.9017 38.5102 78.1012 38.6812 78.2722 38.8807C78.9278 39.4507 79.3553 40.1632 79.8113 40.8473C82.5474 44.8659 85.312 48.8561 88.1051 52.8177C89.1596 54.2713 90.1857 55.7533 91.1547 57.2639C91.2402 57.3779 91.2972 57.5489 91.4682 57.6059Z" fill="#FEFEFE"/>
<path d="M104.55 78.9783C107.771 78.9783 110.992 78.9498 114.212 78.9498C114.497 78.7788 114.383 78.4938 114.383 78.2658C114.383 75.4442 114.412 72.6226 114.383 69.8009C114.383 69.3164 114.469 69.0314 115.01 69.1454C115.495 69.2309 115.865 69.3449 115.694 69.972C115.637 70.2285 115.637 70.5135 115.637 70.77C115.637 73.6201 115.609 76.4987 115.666 79.3488C115.666 80.0613 115.438 80.2038 114.782 80.2038C111.818 80.1753 108.825 80.1753 105.861 80.2038C104.408 80.2038 104.579 80.2893 104.55 78.9783Z" fill="#3A3939"/>
<path d="M104.807 79.0105C103.553 78.925 103.553 78.925 103.553 77.6424C103.553 74.6498 103.553 71.6287 103.553 68.6361C103.553 68.0376 103.667 67.8096 104.322 67.8381C107.514 67.8666 110.707 67.8666 113.87 67.8666C114.241 67.8666 114.526 67.8666 114.526 68.3796C114.497 71.8282 114.497 75.3053 114.497 78.754C114.497 78.8395 114.469 78.925 114.469 79.0105C114.241 79.2955 113.899 79.267 113.585 79.267C110.963 79.267 108.341 79.267 105.69 79.267C105.405 79.2385 105.092 79.2385 104.807 79.0105Z" fill="#FE0918"/>
<path d="M95.1166 72.8538C97.3111 69.8897 99.5057 66.954 101.7 63.9899C105.804 63.9899 109.937 63.9899 114.041 64.0184C114.668 64.0184 114.668 63.7049 114.668 63.2489C114.668 55.3541 114.668 47.4593 114.64 39.5645C114.64 38.9945 114.782 38.8235 115.352 38.8235C115.951 38.852 115.865 39.194 115.865 39.5645C115.865 47.6303 115.865 55.6676 115.865 63.7334C115.865 63.9044 115.865 64.1039 115.865 64.2749C115.922 65.2155 115.922 65.2155 114.953 65.2155C111.334 65.2155 107.714 65.2155 104.094 65.2155C103.439 65.2155 103.011 65.3865 102.612 65.928C100.845 68.3791 99.0497 70.7732 97.2541 73.1958C96.6841 73.9653 96.0571 74.4783 94.974 74.3928C93.492 74.2788 91.9814 74.3073 90.4709 74.3928C89.3593 74.4498 88.5613 74.1933 88.1338 73.0248C88.4473 73.0248 88.7608 73.0248 89.1028 73.0248C90.8699 73.0248 92.6655 73.0248 94.4325 73.0248C94.6605 73.0248 94.9455 73.1388 95.1166 72.8538Z" fill="#3A3939"/>
<path d="M80.9234 78.8394C80.9234 73.9372 80.9234 69.035 80.9234 64.0188C81.5219 64.6173 81.921 65.2158 82.32 65.8714C82.32 70.346 82.2915 74.8207 82.2915 79.3239C82.2915 80.2644 82.2915 80.2644 81.3224 80.2644C77.5888 80.2644 73.8552 80.2644 70.1215 80.2644C69.7795 80.2644 69.4375 80.3214 69.3235 79.8369C69.181 79.2669 69.3235 79.0389 69.922 79.0389C73.3421 79.0389 76.7338 79.0389 80.1539 79.0389C80.4104 79.0389 80.7239 79.1814 80.9234 78.8394Z" fill="#3A3939"/>
<path d="M91.4685 57.606C91.2119 57.8055 91.1834 57.5205 91.0979 57.4065C89.0174 54.3854 86.9368 51.3642 84.8277 48.3716C82.7756 45.4075 80.7236 42.4719 78.6715 39.5078C78.529 39.3083 78.415 39.0803 78.2725 38.8808C78.643 38.8523 78.7855 39.1088 78.9565 39.3653C80.524 41.5599 82.0346 43.783 83.5167 46.006C84.6567 47.6876 85.8822 49.3122 87.0508 50.9652C87.9913 52.3048 88.8464 53.6728 89.7869 54.9839C90.2714 55.6109 90.5849 56.3519 91.1264 56.9505C91.326 57.15 91.4115 57.378 91.4685 57.606Z" fill="#B998FF"/>
<path d="M144.306 49.1867C144.514 49.1867 144.71 49.1867 144.919 49.2174V32.4755C144.716 32.4755 144.52 32.4755 144.306 32.4755C141.813 32.4755 139.423 31.4854 137.66 29.723C135.898 27.9605 134.908 25.5702 134.908 23.0778C134.908 22.9735 134.908 22.8755 134.908 22.7712H127.037C127.037 22.8755 127.037 22.9735 127.037 23.0778C127.037 25.5702 128.027 27.9605 129.789 29.723C131.552 31.4854 133.942 32.4755 136.434 32.4755C136.643 32.4755 136.839 32.4755 137.047 32.4755V49.2235C136.845 49.2235 136.649 49.1929 136.434 49.1929C133.983 49.2555 131.652 50.2734 129.941 52.0296C128.229 53.7857 127.271 56.1412 127.271 58.5937C127.271 61.0462 128.229 63.4016 129.941 65.1578C131.652 66.914 133.983 67.9319 136.434 67.9945C136.643 67.9945 136.839 67.9945 137.047 67.9639V84.7057C136.845 84.7057 136.649 84.6751 136.434 84.6751C133.943 84.6751 131.554 85.6644 129.791 87.4255C128.029 89.1866 127.038 91.5753 127.037 94.0667C127.037 94.1709 127.037 94.269 127.037 94.3732H134.92C134.92 94.269 134.92 94.1709 134.92 94.0667C134.92 91.5743 135.91 89.1839 137.673 87.4215C139.435 85.6591 141.826 84.669 144.318 84.669C144.526 84.669 144.723 84.669 144.931 84.6996V67.9577C144.729 67.9577 144.533 67.9884 144.318 67.9884C141.866 67.9258 139.536 66.9079 137.824 65.1517C136.112 63.3955 135.154 61.0401 135.154 58.5876C135.154 56.1351 136.112 53.7796 137.824 52.0234C139.536 50.2673 141.866 49.2493 144.318 49.1867H144.306Z" fill="#3A3939"/>
<path d="M28.2939 22.7715C28.2939 22.8759 28.2939 22.9742 28.2939 23.0786C28.2939 24.3153 28.1135 25.5399 27.7631 26.6824C27.4126 27.8249 26.899 28.8631 26.2515 29.7375C25.6039 30.612 24.8352 31.3056 23.9892 31.7789C23.1431 32.2521 22.2363 32.4957 21.3206 32.4957C21.1659 32.4957 21.0204 32.4957 20.8657 32.4957V49.2474C21.0158 49.2474 21.1614 49.2167 21.3206 49.2167C23.1398 49.2794 24.8689 50.2995 26.1391 52.0592C27.4094 53.819 28.1203 56.1793 28.1203 58.6369C28.1203 61.0944 27.4094 63.4547 26.1391 65.2145C24.8689 66.9743 23.1398 67.9943 21.3206 68.057C21.1659 68.057 21.0204 68.057 20.8657 68.0263V84.8026C21.0158 84.8026 21.1614 84.7719 21.3206 84.7719C23.17 84.7719 24.9437 85.764 26.2515 87.5301C27.5592 89.2961 28.2939 91.6914 28.2939 94.1889C28.2939 94.2934 28.2939 94.3917 28.2939 94.4961H55.1954V22.7715H28.2939Z" fill="white"/>
<path d="M145.159 49.3517C145.399 49.3517 145.625 49.3517 145.865 49.3824V32.6392C145.632 32.6392 145.406 32.6392 145.159 32.6392C142.287 32.6392 139.534 31.649 137.503 29.8865C135.473 28.1239 134.332 25.7334 134.332 23.2408C134.332 23.1365 134.332 23.0385 134.332 22.9342H56.2515V94.5416H134.346C134.346 94.4374 134.346 94.3393 134.346 94.2351C134.346 91.7424 135.487 89.3519 137.517 87.5893C139.548 85.8268 142.302 84.8366 145.173 84.8366C145.413 84.8366 145.639 84.8366 145.879 84.8672V68.1241C145.646 68.1241 145.42 68.1548 145.173 68.1548C142.349 68.0922 139.664 67.0742 137.692 65.3179C135.72 63.5616 134.616 61.2059 134.616 58.7532C134.616 56.3006 135.72 53.9449 137.692 52.1886C139.664 50.4323 142.349 49.4143 145.173 49.3517H145.159Z" stroke="#2D2D2D" stroke-width="2.4276" stroke-linecap="round" stroke-linejoin="round"/>
<path d="M28.5592 22.7715C28.5592 22.8759 28.5592 22.9742 28.5592 23.0786C28.5592 24.3153 28.3724 25.5399 28.0094 26.6824C27.6465 27.8249 27.1145 28.8631 26.4438 29.7375C25.7732 30.612 24.977 31.3056 24.1007 31.7789C23.2245 32.2521 22.2853 32.4957 21.3368 32.4957C21.1767 32.4957 21.0259 32.4957 20.8657 32.4957V49.2474C21.0212 49.2474 21.172 49.2167 21.3368 49.2167C23.221 49.2794 25.0118 50.2995 26.3275 52.0592C27.6431 53.819 28.3794 56.1793 28.3794 58.6369C28.3794 61.0944 27.6431 63.4547 26.3275 65.2145C25.0118 66.9743 23.221 67.9943 21.3368 68.057C21.1767 68.057 21.0259 68.057 20.8657 68.0263V84.8026C21.0212 84.8026 21.172 84.7719 21.3368 84.7719C23.2523 84.7719 25.0894 85.764 26.4438 87.5301C27.7983 89.2961 28.5592 91.6914 28.5592 94.1889C28.5592 94.2934 28.5592 94.3917 28.5592 94.4961H56.4215V22.7715H28.5592Z" stroke="#2D2D2D" stroke-width="2.4276" stroke-linecap="round" stroke-linejoin="round"/>
<path d="M42.057 77.7814L43.5357 77.7814L43.5357 80.0435L50.0957 80.0435L50.0957 81.9084L43.5357 81.9084L43.5357 84.1705L42.057 84.1705L42.057 77.7814ZM50.0957 72.2131L50.0957 74.0889L42.057 74.0889L42.057 72.2131L50.0957 72.2131ZM48.0157 62.5599C48.0157 62.5157 48.0249 62.4716 48.0433 62.4275C48.058 62.3833 48.0856 62.341 48.126 62.3006L48.904 61.5613C49.327 61.8849 49.647 62.2914 49.864 62.7806C50.0773 63.2661 50.184 63.8417 50.184 64.5075C50.184 65.1181 50.081 65.6661 49.875 66.1516C49.6654 66.6335 49.3785 67.0436 49.0143 67.382C48.6465 67.7167 48.2125 67.9742 47.7122 68.1544C47.2083 68.3346 46.6621 68.4247 46.0736 68.4247C45.4741 68.4247 44.9242 68.3218 44.4239 68.1158C43.92 67.9098 43.486 67.6229 43.1219 67.2551C42.7577 66.8836 42.4745 66.4404 42.2722 65.9254C42.0699 65.4105 41.9688 64.8422 41.9688 64.2206C41.9688 63.919 41.9963 63.6358 42.0515 63.3709C42.103 63.1024 42.1766 62.8523 42.2722 62.6206C42.3642 62.3888 42.4763 62.1755 42.6088 61.9806C42.7375 61.7856 42.8809 61.6128 43.0391 61.4619L43.8832 62.0909C43.9347 62.1314 43.9826 62.1792 44.0267 62.2344C44.0672 62.2895 44.0874 62.3668 44.0874 62.4661C44.0874 62.5323 44.0727 62.5948 44.0432 62.6537C44.0138 62.7125 43.9789 62.7751 43.9384 62.8413C43.8943 62.9075 43.8483 62.981 43.8005 63.062C43.749 63.1392 43.703 63.233 43.6626 63.3433C43.6184 63.45 43.5816 63.5769 43.5522 63.724C43.5228 63.8675 43.5081 64.0367 43.5081 64.2316C43.5081 64.57 43.5688 64.879 43.6901 65.1585C43.8078 65.4381 43.9789 65.679 44.2032 65.8813C44.4239 66.0799 44.6924 66.2362 45.0088 66.3503C45.3251 66.4606 45.68 66.5158 46.0736 66.5158C46.4856 66.5158 46.8515 66.4606 47.1715 66.3503C47.4915 66.2362 47.7619 66.0836 47.9826 65.8923C48.1996 65.6974 48.3651 65.4712 48.4791 65.2137C48.5932 64.9562 48.6502 64.6804 48.6502 64.3861C48.6502 64.2169 48.6428 64.0624 48.6281 63.9227C48.6097 63.7829 48.5803 63.6541 48.5398 63.5364C48.4994 63.4151 48.4479 63.301 48.3853 63.1944C48.3191 63.084 48.2382 62.9737 48.1426 62.8633C48.1058 62.8192 48.0764 62.7714 48.0543 62.7199C48.0286 62.6684 48.0157 62.6151 48.0157 62.5599ZM45.3122 56.0856L45.3122 55.7877C45.3122 55.5118 45.2258 55.3132 45.0529 55.1918L42.4267 53.3822C42.2832 53.2828 42.1858 53.1707 42.1343 53.0456C42.0828 52.9169 42.057 52.7605 42.057 52.5766L42.057 50.9546L45.3067 53.338C45.4244 53.4226 45.5219 53.5109 45.5991 53.6028C45.6764 53.6948 45.7407 53.7886 45.7922 53.8842C45.8437 53.7445 45.9154 53.6176 46.0074 53.5035C46.0957 53.3858 46.2152 53.2792 46.366 53.1835L50.0957 50.7559L50.0957 52.4221C50.0957 52.5288 50.0883 52.6208 50.0736 52.698C50.0589 52.7716 50.0369 52.8359 50.0074 52.8911C49.978 52.9463 49.9431 52.9941 49.9026 53.0346C49.8585 53.075 49.8088 53.1136 49.7536 53.1504L46.9564 54.9711C46.8534 55.0373 46.7817 55.1219 46.7412 55.2249C46.6971 55.3242 46.675 55.4603 46.675 55.6332L46.675 56.0856L50.0957 56.0856L50.0957 57.9505L42.057 57.9505L42.057 56.0856L45.3122 56.0856ZM42.057 42.1394L43.4915 42.1394L43.4915 45.4387L45.3674 45.4387L45.3674 42.9118L46.7467 42.9118L46.7467 45.4387L48.6612 45.4387L48.6612 42.1394L50.0957 42.1394L50.0957 47.3146L42.057 47.3146L42.057 42.1394ZM42.057 32.4794L43.5357 32.4794L43.5357 34.7415L50.0957 34.7415L50.0957 36.6064L43.5357 36.6064L43.5357 38.8684L42.057 38.8684L42.057 32.4794Z" fill="#2D2D2D"/>
</g>
<defs>
<filter id="filter0_d" x="14.4354" y="19.1866" width="137.874" height="84.6306" filterUnits="userSpaceOnUse" color-interpolation-filters="sRGB">
<feFlood flood-opacity="0" result="BackgroundImageFix"/>
<feColorMatrix in="SourceAlpha" type="matrix" values="0 0 0 0 0 0 0 0 0 0 0 0 0 0 0 0 0 0 127 0" result="hardAlpha"/>
<feMorphology radius="1.89688" operator="erode" in="SourceAlpha" result="effect1_dropShadow"/>
<feOffset dy="2.84533"/>
<feGaussianBlur stdDeviation="3.55666"/>
<feColorMatrix type="matrix" values="0 0 0 0 0 0 0 0 0 0 0 0 0 0 0 0 0 0 0.2 0"/>
<feBlend mode="normal" in2="BackgroundImageFix" result="effect1_dropShadow"/>
<feBlend mode="normal" in="SourceGraphic" in2="effect1_dropShadow" result="shape"/>
</filter>
</defs>
</svg>
